<svg width="9" height="10" viewBox="0 0 9 10" fill="none" xmlns="http://www.w3.org/2000/svg">
<path d="M3.36521 0C4.12214 0 4.87847 0 5.6354 0C5.63479 0.885929 5.63419 1.77186 5.63419 2.65779C5.63419 2.66551 5.63962 2.67387 5.64624 2.6906C6.33688 2.18169 7.0227 1.67535 7.71515 1.16515C8.14484 1.82912 8.57031 2.48665 9.0006 3.1519C8.16232 3.77019 7.33126 4.38332 6.49056 5.00354C7.33427 5.62568 8.16473 6.23882 9.0006 6.85518C8.5673 7.52429 8.14243 8.18118 7.71515 8.84192C7.01908 8.32851 6.33327 7.82281 5.63058 7.3049C5.63058 8.21913 5.63058 9.11021 5.63058 10C4.87184 10 4.12334 10 3.3634 10C3.3634 9.10378 3.3634 8.21463 3.3634 7.31004C2.66312 7.82667 1.9773 8.33237 1.28606 8.84192C0.85456 8.17603 0.429088 7.5185 0 6.85518C0.839494 6.23561 1.67055 5.62311 2.51004 5.00354C1.66633 4.38139 0.837083 3.76954 0 3.1519C0.430293 2.48665 0.855765 1.82912 1.28546 1.16515C1.97911 1.67664 2.66673 2.18298 3.36521 2.69832C3.36521 1.78473 3.36521 0.892363 3.36521 0Z" fill="#ED1C24"/>
</svg>
