<svg width="28" height="25" viewBox="0 0 28 25" fill="none" xmlns="http://www.w3.org/2000/svg">
<path fill-rule="evenodd" clip-rule="evenodd" d="M19.7002 6.2C19.7002 9.34802 17.1483 11.9 14.0002 11.9C10.8522 11.9 8.30023 9.34802 8.30023 6.2C8.30023 3.05198 10.8522 0.5 14.0002 0.5C17.1483 0.5 19.7002 3.05198 19.7002 6.2ZM17.8002 6.2C17.8002 8.29868 16.0989 10 14.0002 10C11.9016 10 10.2002 8.29868 10.2002 6.2C10.2002 4.10132 11.9016 2.4 14.0002 2.4C16.0989 2.4 17.8002 4.10132 17.8002 6.2Z" fill="#4F378A"/>
<path d="M14.0002 14.75C7.84957 14.75 2.60904 18.387 0.612793 23.4824C1.09909 23.9653 1.61137 24.4221 2.14736 24.8505C3.63386 20.1723 8.29711 16.65 14.0002 16.65C19.7034 16.65 24.3666 20.1723 25.8531 24.8505C26.3891 24.4221 26.9014 23.9653 27.3877 23.4825C25.3914 18.387 20.1509 14.75 14.0002 14.75Z" fill="#4F378A"/>
</svg>
