<svg width="20" height="19" viewBox="0 0 20 19" fill="none" xmlns="http://www.w3.org/2000/svg">
<path d="M17.8667 8.74789L10.2084 16.0233C9.27017 16.9146 7.99769 17.4153 6.67087 17.4153C5.34405 17.4153 4.07157 16.9146 3.13337 16.0233C2.19517 15.132 1.66809 13.9232 1.66809 12.6627C1.66809 11.4022 2.19517 10.1934 3.13337 9.30206L10.7917 2.02664C11.4172 1.43245 12.2655 1.09863 13.15 1.09863C14.0346 1.09863 14.8829 1.43245 15.5084 2.02664C16.1338 2.62084 16.4852 3.42674 16.4852 4.26706C16.4852 5.10738 16.1338 5.91328 15.5084 6.50748L7.8417 13.7829C7.52897 14.08 7.10481 14.2469 6.66254 14.2469C6.22026 14.2469 5.79611 14.08 5.48337 13.7829C5.17064 13.4858 4.99494 13.0828 4.99494 12.6627C4.99494 12.2425 5.17064 11.8396 5.48337 11.5425L12.5584 4.82914" stroke="#747474" stroke-width="1.5" stroke-linecap="round" stroke-linejoin="round"/>
</svg>
