<svg width="22" height="22" viewBox="0 0 22 22" fill="none" xmlns="http://www.w3.org/2000/svg">
<path d="M7.85581 21.441L7.42961 18.0314C7.19875 17.9426 6.98121 17.8361 6.77699 17.7118C6.57277 17.5875 6.37298 17.4543 6.17764 17.3122L3.00777 18.6441L0.0776367 13.583L2.82131 11.5052C2.80355 11.3809 2.79467 11.2611 2.79467 11.1456V10.4264C2.79467 10.311 2.80355 10.1911 2.82131 10.0668L0.0776367 7.98907L3.00777 2.92793L6.17764 4.25981C6.37298 4.11774 6.57721 3.98455 6.79031 3.86024C7.00341 3.73593 7.21651 3.62938 7.42961 3.54059L7.85581 0.130981H13.7161L14.1423 3.54059C14.3731 3.62938 14.5907 3.73593 14.7949 3.86024C14.9991 3.98455 15.1989 4.11774 15.3942 4.25981L18.5641 2.92793L21.4943 7.98907L18.7506 10.0668C18.7683 10.1911 18.7772 10.311 18.7772 10.4264V11.1456C18.7772 11.2611 18.7595 11.3809 18.7239 11.5052L21.4676 13.583L18.5375 18.6441L15.3942 17.3122C15.1989 17.4543 14.9947 17.5875 14.7816 17.7118C14.5685 17.8361 14.3554 17.9426 14.1423 18.0314L13.7161 21.441H7.85581ZM9.72044 19.31H11.8248L12.1977 16.4865C12.7482 16.3444 13.2588 16.1357 13.7294 15.8605C14.2 15.5852 14.6306 15.2522 15.0213 14.8616L17.6584 15.9537L18.6973 14.1424L16.4065 12.4109C16.4953 12.1623 16.5574 11.9004 16.5929 11.6251C16.6285 11.3498 16.6462 11.0701 16.6462 10.786C16.6462 10.5019 16.6285 10.2222 16.5929 9.94693C16.5574 9.67168 16.4953 9.40974 16.4065 9.16112L18.6973 7.42968L17.6584 5.61832L15.0213 6.7371C14.6306 6.32866 14.2 5.98681 13.7294 5.71156C13.2588 5.4363 12.7482 5.22764 12.1977 5.08557L11.8514 2.26199H9.74708L9.37415 5.08557C8.82364 5.22764 8.31309 5.4363 7.84249 5.71156C7.37189 5.98681 6.94125 6.31978 6.55057 6.71046L3.91345 5.61832L2.87458 7.42968L5.16541 9.13448C5.07662 9.40086 5.01447 9.66724 4.97895 9.93361C4.94343 10.2 4.92568 10.4841 4.92568 10.786C4.92568 11.0701 4.94343 11.3454 4.97895 11.6118C5.01447 11.8782 5.07662 12.1445 5.16541 12.4109L2.87458 14.1424L3.91345 15.9537L6.55057 14.8349C6.94125 15.2434 7.37189 15.5852 7.84249 15.8605C8.31309 16.1357 8.82364 16.3444 9.37415 16.4865L9.72044 19.31ZM10.8392 14.5153C11.8692 14.5153 12.7482 14.1512 13.4763 13.4231C14.2044 12.695 14.5685 11.816 14.5685 10.786C14.5685 9.75603 14.2044 8.87699 13.4763 8.14889C12.7482 7.4208 11.8692 7.05675 10.8392 7.05675C9.79148 7.05675 8.908 7.4208 8.18878 8.14889C7.46957 8.87699 7.10996 9.75603 7.10996 10.786C7.10996 11.816 7.46957 12.695 8.18878 13.4231C8.908 14.1512 9.79148 14.5153 10.8392 14.5153Z" fill="#704A95"/>
</svg>
