<svg width="15" height="14" viewBox="0 0 15 14" fill="none" xmlns="http://www.w3.org/2000/svg">
<g clip-path="url(#clip0_2816_1183)">
<path d="M13.3999 6.44584L7.65619 11.8067C6.95253 12.4634 5.99818 12.8324 5.00306 12.8324C4.00795 12.8324 3.05359 12.4634 2.34994 11.8067C1.64628 11.1499 1.25098 10.2592 1.25098 9.33042C1.25098 8.40165 1.64628 7.51091 2.34994 6.85417L8.09369 1.49334C8.56279 1.05551 9.19903 0.80954 9.86244 0.80954C10.5258 0.80954 11.1621 1.05551 11.6312 1.49334C12.1003 1.93117 12.3638 2.52499 12.3638 3.14417C12.3638 3.76335 12.1003 4.35718 11.6312 4.795L5.88119 10.1558C5.64664 10.3748 5.32852 10.4977 4.99681 10.4977C4.66511 10.4977 4.34699 10.3748 4.11244 10.1558C3.87789 9.93692 3.74612 9.64001 3.74612 9.33042C3.74612 9.02083 3.87789 8.72392 4.11244 8.505L9.41869 3.55834" stroke="#704A95" stroke-width="1.5" stroke-linecap="round" stroke-linejoin="round"/>
</g>
<defs>
<clipPath id="clip0_2816_1183">
<rect width="15" height="14" fill="white"/>
</clipPath>
</defs>
</svg>
