<svg width="24" height="24" viewBox="0 0 24 24" fill="none" xmlns="http://www.w3.org/2000/svg">
<path d="M8.06485 6.76849C7.70687 6.4105 7.12647 6.4105 6.76849 6.76849C6.4105 7.12647 6.4105 7.70687 6.76849 8.06485L10.7036 12L6.76849 15.9352C6.4105 16.2931 6.4105 16.8735 6.76849 17.2315C7.12647 17.5895 7.70687 17.5895 8.06485 17.2315L12 13.2964L15.9352 17.2315C16.2931 17.5895 16.8735 17.5895 17.2315 17.2315C17.5895 16.8735 17.5895 16.2931 17.2315 15.9352L13.2964 12L17.2315 8.06485C17.5895 7.70687 17.5895 7.12647 17.2315 6.76849C16.8735 6.4105 16.2931 6.4105 15.9352 6.76849L12 10.7036L8.06485 6.76849Z" fill="#CACACA"/>
</svg>
