<svg width="19" height="17" viewBox="0 0 19 17" fill="none" xmlns="http://www.w3.org/2000/svg">
<path d="M17.7805 1.69158L17.0446 0.955635C16.8366 0.747644 16.4526 0.779653 16.2126 1.0676L13.6524 3.61156C12.5003 3.11562 11.2365 2.87562 9.90841 2.87562C5.95629 2.89156 2.53252 5.19553 0.884399 8.50774C0.788371 8.71573 0.788371 8.97166 0.884399 9.14764C1.65233 10.7157 2.8044 12.0117 4.2444 12.9876L2.14841 15.1156C1.90841 15.3556 1.8764 15.7396 2.03645 15.9476L2.77239 16.6835C2.98038 16.8915 3.36437 16.8595 3.60437 16.5716L17.6523 2.52369C17.9563 2.28383 17.9883 1.89986 17.7803 1.69185L17.7805 1.69158ZM10.7564 6.52346C10.4844 6.45945 10.1964 6.37949 9.92443 6.37949C8.56438 6.37949 7.47649 7.46751 7.47649 8.82742C7.47649 9.09943 7.54051 9.38738 7.62046 9.6594L6.54835 10.7154C6.22839 10.1555 6.0524 9.53138 6.0524 8.82746C6.0524 6.69948 7.76443 4.98746 9.89241 4.98746C10.5965 4.98746 11.2204 5.16344 11.7804 5.4834L10.7564 6.52346Z" fill="#807D7E"/>
<path d="M18.933 8.50767C18.373 7.38763 17.6369 6.37969 16.725 5.56366L13.749 8.50767V8.82763C13.749 10.9556 12.037 12.6676 9.90899 12.6676H9.58903L7.70105 14.5556C8.40511 14.6996 9.14105 14.7956 9.86106 14.7956C13.8132 14.7956 17.237 12.4916 18.8851 9.16349C19.0291 8.93942 19.0291 8.71551 18.933 8.5075L18.933 8.50767Z" fill="#807D7E"/>
</svg>
