<svg width="45" height="45" viewBox="0 0 45 45" fill="none" xmlns="http://www.w3.org/2000/svg">
<g clip-path="url(#clip0_2816_3564)">
<path d="M0 6.15205C0.0667838 5.8708 0.130931 5.58955 0.200352 5.30918C0.973638 2.21982 3.79174 0.00409845 6.97012 0.00321955C17.3243 -0.000296076 27.6784 -0.00117498 38.0325 0.00321955C41.8269 0.00497736 44.9807 3.14443 44.9859 6.929C44.9947 12.7298 44.9895 18.5306 44.9877 24.3313C44.9877 25.4124 44.2627 26.1832 43.2513 26.1894C42.2127 26.1955 41.4772 25.4273 41.4772 24.3261C41.4763 18.6281 41.478 12.9302 41.4754 7.23134C41.4763 5.45771 40.4815 4.08574 38.8717 3.65683C38.5228 3.56367 38.1503 3.51972 37.7891 3.51884C27.5958 3.51181 17.4033 3.51093 7.21002 3.51445C5.02724 3.51621 3.51494 5.03408 3.51494 7.22255C3.5123 17.4029 3.5123 27.5833 3.51494 37.7637C3.51582 39.975 5.02724 41.4832 7.24165 41.485C13.1292 41.4885 19.0167 41.4999 24.9033 41.4735C25.9965 41.4683 26.6854 42.1002 26.8603 42.8789C27.0562 43.7517 26.5984 44.5058 25.6274 44.9373C25.6037 44.9478 25.5896 44.9786 25.5712 44.9997C19.0975 44.9997 12.6248 44.9997 6.15114 44.9997C6.08612 44.9716 6.02373 44.9311 5.95518 44.918C3.00351 44.3625 1.10721 42.6328 0.231107 39.7711C0.137961 39.4679 0.0764499 39.1559 0 38.8474C0 27.9489 0 17.0505 0 6.15205Z" fill="black"/>
<path d="M42.7945 45.0001C42.3604 44.6661 41.8964 44.3646 41.4992 43.992C40.7418 43.2809 40.0177 42.5339 39.2927 41.7894C39.1029 41.5952 38.9641 41.5468 38.6996 41.6866C33.9316 44.1941 28.2347 41.4572 27.1864 36.1653C26.3244 31.8121 29.4272 27.4931 33.8516 26.8884C38.9131 26.1967 43.2769 30.2942 42.8648 35.3655C42.7567 36.6988 42.3261 37.9337 41.5563 39.1061C42.5142 40.0509 43.479 40.9887 44.4272 41.9423C45.1864 42.7061 45.1926 43.8364 44.4395 44.5175C44.2189 44.7171 43.9307 44.841 43.6741 45.0001C43.3806 45.0001 43.0871 45.0001 42.7945 45.0001ZM34.9702 39.1105C37.3648 39.1131 39.3639 37.1154 39.3657 34.7195C39.3674 32.3218 37.3736 30.325 34.9755 30.3232C32.5792 30.3215 30.5818 32.3157 30.5801 34.7133C30.5792 37.1092 32.5739 39.1079 34.9702 39.1105Z" fill="black"/>
<path d="M26.891 13.4455C24.3735 13.4455 21.8559 13.4481 19.3383 13.4437C18.4464 13.442 17.7039 12.8057 17.5861 11.9654C17.4587 11.0531 17.9912 10.2322 18.8805 9.99051C19.0466 9.94569 19.2267 9.93602 19.3998 9.93602C24.391 9.93339 29.3822 9.93251 34.3743 9.93426C35.4429 9.93426 36.2047 10.6752 36.2021 11.6982C36.1995 12.7125 35.4306 13.4446 34.3568 13.4455C31.8682 13.4473 29.3796 13.4455 26.891 13.4455Z" fill="black"/>
<path d="M26.8919 23.9923C24.3743 23.9923 21.8568 23.9949 19.3392 23.9905C18.4473 23.9888 17.7047 23.3533 17.5861 22.5131C17.4578 21.6016 17.9903 20.7799 18.8796 20.5373C19.0457 20.4916 19.2258 20.4819 19.3989 20.4819C24.3902 20.4793 29.3814 20.4784 34.3735 20.4802C35.442 20.4802 36.2047 21.2211 36.2021 22.2432C36.1995 23.2584 35.4315 23.9905 34.3576 23.9914C31.8691 23.994 29.3805 23.9923 26.8919 23.9923Z" fill="black"/>
<path d="M20.5816 31.6423C21.0061 31.6423 21.4296 31.6353 21.854 31.6441C22.8092 31.6643 23.5509 32.4395 23.5482 33.4063C23.5456 34.3678 22.7978 35.1395 21.8373 35.1518C20.9894 35.1623 20.1405 35.1623 19.2925 35.1518C18.3119 35.1395 17.5676 34.3573 17.5772 33.3676C17.586 32.4096 18.34 31.6573 19.3101 31.6432C19.7328 31.637 20.1572 31.6423 20.5816 31.6423Z" fill="black"/>
<path d="M11.4297 9.93341C11.7223 9.93341 12.0149 9.92989 12.3067 9.93428C13.3014 9.94659 14.0553 10.7033 14.0571 11.6851C14.0589 12.6677 13.3049 13.4332 12.3155 13.4446C11.7162 13.4517 11.116 13.4525 10.5167 13.4446C9.53162 13.4315 8.78382 12.6589 8.78909 11.6719C8.79436 10.7112 9.54392 9.95186 10.5088 9.93516C10.8155 9.92901 11.123 9.93341 11.4297 9.93341Z" fill="black"/>
<path d="M11.4402 20.4802C11.7328 20.4802 12.0254 20.4767 12.3172 20.4811C13.3066 20.4952 14.0588 21.2581 14.0571 22.2424C14.0553 23.2224 13.2987 23.9809 12.304 23.9915C11.7047 23.9976 11.1045 23.9994 10.5052 23.9906C9.52542 23.9756 8.77938 23.1961 8.78816 22.2073C8.79695 21.2493 9.55003 20.4961 10.5184 20.4811C10.8259 20.4758 11.1335 20.4802 11.4402 20.4802Z" fill="black"/>
<path d="M11.4138 35.1545C11.1212 35.1545 10.8286 35.158 10.5369 35.1536C9.5439 35.1395 8.78994 34.3819 8.78906 33.3993C8.78906 32.4149 9.54126 31.6538 10.5325 31.6432C11.1318 31.6371 11.7319 31.6353 12.3312 31.6432C13.3154 31.6564 14.0632 32.429 14.0571 33.4169C14.0509 34.3758 13.2996 35.1351 12.3348 35.1527C12.0281 35.1589 11.7214 35.1545 11.4138 35.1545Z" fill="black"/>
</g>
<defs>
<clipPath id="clip0_2816_3564">
<rect width="45" height="45" fill="white"/>
</clipPath>
</defs>
</svg>
